<svg xmlns="http://www.w3.org/2000/svg" version="1.1" xmlns:xlink="http://www.w3.org/1999/xlink" xmlns:svgjs="http://svgjs.dev/svgjs" width="1440" height="900" preserveAspectRatio="none" viewBox="0 0 1440 900"><g mask="url(&quot;#SvgjsMask1140&quot;)" fill="none"><path d="M1181.566,142.465C1218.123,141.847,1255.605,128.805,1273.104,96.703C1290.034,65.646,1277.375,29.38,1260.006,-1.434C1242.217,-32.994,1217.792,-66.046,1181.566,-65.695C1145.704,-65.348,1123.85,-30.88,1105.714,0.061C1087.276,31.517,1067.368,67.709,1084.509,99.89C1102.31,133.31,1143.706,143.105,1181.566,142.465" fill="rgba(0, 0, 0, 0.12)" class="triangle-float3"></path><path d="M1198.2244773318885 709.5223865901938L1368.899011467653 892.5484165954274 1551.9250414728865 721.8738824596628 1381.250507337122 538.8478524544294z" fill="rgba(0, 0, 0, 0.12)" class="triangle-float3"></path><path d="M969.44185410464 291.0920513612699L1124.4225296047734 208.68736447258192 1042.0178427160854 53.70668897244849 887.037167215952 136.11137586113648z" fill="rgba(0, 0, 0, 0.12)" class="triangle-float3"></path><path d="M1381.684472506144 65.60554509735294L1133.5199808497182 151.05543221265313 1218.9698679650182 399.21992386907897 1467.1343596214442 313.77003675377875z" fill="rgba(0, 0, 0, 0.12)" class="triangle-float2"></path><path d="M525.372,924.427C606.479,919.768,668.819,862.139,710.533,792.425C753.706,720.272,784.435,633.026,743.769,559.431C702.113,484.043,611.313,451.613,525.372,457.329C448.545,462.439,393.149,520.342,352.095,585.481C307.037,656.974,260.824,740.805,299.291,816.05C340.063,895.804,435.947,929.564,525.372,924.427" fill="rgba(0, 0, 0, 0.12)" class="triangle-float1"></path><path d="M1470.65,671.775C1553.932,666.554,1616.894,606.188,1659.629,534.517C1703.725,460.564,1737.129,370.978,1694.667,296.075C1651.801,220.459,1557.39,195.55,1470.65,201.158C1393.658,206.136,1333.937,257.524,1291.756,322.126C1243.81,395.558,1195.689,483.024,1235.634,561.098C1277.907,643.72,1378.024,677.582,1470.65,671.775" fill="rgba(0, 0, 0, 0.12)" class="triangle-float1"></path><path d="M410.73033506628633 338.1384633918174L158.4357774257217 410.48276364730896 230.7800776812132 662.7773212878735 483.0746353217778 590.433021032382z" fill="rgba(0, 0, 0, 0.12)" class="triangle-float3"></path><path d="M39.799739624767994-16.767273741128058L-127.96855855598437 96.39387223794918-14.807412576907126 264.1621704187015 152.96088560384524 151.0010244396243z" fill="rgba(0, 0, 0, 0.12)" class="triangle-float1"></path><path d="M1486.477,578.155C1549.646,578.949,1607.76,546.604,1641.585,493.249C1678.17,435.541,1693.938,362.804,1660.929,302.978C1626.982,241.451,1556.748,212.312,1486.477,212.129C1415.855,211.946,1343.787,239.81,1310.448,302.067C1278.508,361.711,1301.604,432.385,1337.978,489.434C1371.203,541.544,1424.681,577.378,1486.477,578.155" fill="rgba(0, 0, 0, 0.12)" class="triangle-float3"></path><path d="M1166.0556474373834 421.50895398861167L1364.004754623875 261.2129276037838 1203.708728239047 63.26382041729221 1005.7596210525555 223.55984680212003z" fill="rgba(0, 0, 0, 0.12)" class="triangle-float2"></path><path d="M-134.81005910616335 595.582689792451L95.22448831067399 632.0165828403748 131.65838135859775 401.98203542353735-98.37616605823962 365.5481423756137z" fill="rgba(0, 0, 0, 0.12)" class="triangle-float2"></path><path d="M100.62,823.556C137.246,823.83,166.589,798.597,186.827,768.069C210.148,732.892,234.747,689.593,213.675,653.025C192.588,616.431,142.794,616.194,100.62,618.468C63.414,620.474,25.238,631.752,6.877,664.174C-11.272,696.22,-2.054,735.053,16.617,766.797C34.98,798.017,64.401,823.285,100.62,823.556" fill="rgba(0, 0, 0, 0.12)" class="triangle-float1"></path><path d="M1353.7995585336785 201.34085227220126L1437.8422528750298 21.110712638903976 1257.6121132417325-62.931981702447246 1173.5694189003812 117.29815793085004z" fill="rgba(0, 0, 0, 0.12)" class="triangle-float2"></path></g><defs><mask id="SvgjsMask1140"><rect width="1440" height="900" fill="#ffffff"></rect></mask><style>
                @keyframes float1 {
                    0%{transform: translate(0, 0)}
                    50%{transform: translate(-10px, 0)}
                    100%{transform: translate(0, 0)}
                }

                .triangle-float1 {
                    animation: float1 5s infinite;
                }

                @keyframes float2 {
                    0%{transform: translate(0, 0)}
                    50%{transform: translate(-5px, -5px)}
                    100%{transform: translate(0, 0)}
                }

                .triangle-float2 {
                    animation: float2 4s infinite;
                }

                @keyframes float3 {
                    0%{transform: translate(0, 0)}
                    50%{transform: translate(0, -10px)}
                    100%{transform: translate(0, 0)}
                }

                .triangle-float3 {
                    animation: float3 6s infinite;
                }
            </style></defs></svg>