<svg xmlns="http://www.w3.org/2000/svg" version="1.1" xmlns:xlink="http://www.w3.org/1999/xlink" xmlns:svgjs="http://svgjs.dev/svgjs" width="1440" height="560" preserveAspectRatio="none" viewBox="0 0 1440 560"><g mask="url(&quot;#SvgjsMask1011&quot;)" fill="none"><path d="M545.13 6.15a53.91 53.91 0 1 0-30.88 103.31z" stroke="rgba(25, 12, 159, 1)"></path><path d="M846.59 102.91L898.07 102.91L898.07 154.39L846.59 154.39z" fill="rgba(179, 22, 160, 1)"></path><path d="M539.99 199.56 a20.33 20.33 0 1 0 40.66 0 a20.33 20.33 0 1 0 -40.66 0z" fill="rgba(244, 255, 245, 1)"></path><path d="M88.26 51.21a25.77 25.77 0 1 0 3.69 51.4z" stroke="rgba(179, 22, 160, 1)"></path><path d="M596.11 135.46L611.12 135.46L611.12 150.47L596.11 150.47z" stroke="rgba(179, 22, 160, 1)"></path><path d="M1212.82 545.51a16.09 16.09 0 1 0 20.21 25.04z" fill="rgba(179, 22, 160, 1)"></path><path d="M619.83 197.64a36.25 36.25 0 1 0-21.73-69.17z" fill="rgba(179, 22, 160, 1)"></path><path d="M1104.07 524.76a47.3 47.3 0 1 0 22.8-91.81z" stroke="rgba(179, 22, 160, 1)"></path><path d="M1201.44 529.26a44.86 44.86 0 1 0 68.13-58.38z" fill="rgba(25, 12, 159, 1)"></path><path d="M1235.78 428.65L1281.43 428.65L1281.43 474.3L1235.78 474.3z" stroke="rgba(179, 22, 160, 1)"></path><path d="M965.22 76.06 a22.59 22.59 0 1 0 45.18 0 a22.59 22.59 0 1 0 -45.18 0z" stroke="rgba(179, 22, 160, 1)"></path><path d="M227.93 19.67L255.44 19.67L255.44 47.18L227.93 47.18z" fill="rgba(25, 12, 159, 1)"></path><path d="M1389.57 202.12L1429.9 202.12L1429.9 205.49L1389.57 205.49z" stroke="rgba(179, 22, 160, 1)"></path><path d="M282.32 465.88a5.39 5.39 0 1 0-10.77-0.23z" stroke="rgba(179, 22, 160, 1)"></path><path d="M440.94 364.47L481.55 364.47L481.55 405.08L440.94 405.08z" stroke="rgba(244, 255, 245, 1)"></path><path d="M463.54 198.23L485.5 198.23L485.5 234.44L463.54 234.44z" fill="rgba(25, 12, 159, 1)"></path><path d="M581.58 407.73L598.19 407.73L598.19 454.03L581.58 454.03z" stroke="rgba(179, 22, 160, 1)"></path><path d="M1190.75 409.03 a27.71 27.71 0 1 0 55.42 0 a27.71 27.71 0 1 0 -55.42 0z" fill="rgba(179, 22, 160, 1)"></path><path d="M1413.53 515.12a35.15 35.15 0 1 0-35.21-60.84z" stroke="rgba(244, 255, 245, 1)"></path><path d="M640.59 448.7L643.89 448.7L643.89 455.16L640.59 455.16z" stroke="rgba(244, 255, 245, 1)"></path><path d="M971.19 23.6L997.12 23.6L997.12 49.53L971.19 49.53z" stroke="rgba(25, 12, 159, 1)"></path><path d="M1015.92 186.68L1032.57 186.68L1032.57 203.33L1015.92 203.33z" fill="rgba(179, 22, 160, 1)"></path><path d="M699.92 302.16 a55.62 55.62 0 1 0 111.24 0 a55.62 55.62 0 1 0 -111.24 0z" stroke="rgba(25, 12, 159, 1)"></path><path d="M1393.75 161.35a11.32 11.32 0 1 0 9.06 20.75z" fill="rgba(244, 255, 245, 1)"></path><path d="M393.26 46.85L402.43 46.85L402.43 81.05L393.26 81.05z" stroke="rgba(25, 12, 159, 1)"></path><path d="M431.63 71.38 a14.8 14.8 0 1 0 29.6 0 a14.8 14.8 0 1 0 -29.6 0z" fill="rgba(244, 255, 245, 1)"></path><path d="M363.08 97.54L398.16 97.54L398.16 141.35L363.08 141.35z" fill="rgba(244, 255, 245, 1)"></path><path d="M224.46 174.24L233.03 174.24L233.03 190.46L224.46 190.46z" stroke="rgba(25, 12, 159, 1)"></path><path d="M705.24 352.74L749.04 352.74L749.04 396.54L705.24 396.54z" fill="rgba(179, 22, 160, 1)"></path><path d="M253.6 392.45 a4.3 4.3 0 1 0 8.6 0 a4.3 4.3 0 1 0 -8.6 0z" stroke="rgba(244, 255, 245, 1)"></path><path d="M1052.93 287.45L1083.85 287.45L1083.85 318.37L1052.93 318.37z" stroke="rgba(244, 255, 245, 1)"></path><path d="M395.34 116.75a31.44 31.44 0 1 0-20.69-59.38z" fill="rgba(25, 12, 159, 1)"></path><path d="M13.48 354.73L17.72 354.73L17.72 405.62L13.48 405.62z" stroke="rgba(244, 255, 245, 1)"></path></g><defs><mask id="SvgjsMask1011"><rect width="1440" height="560" fill="#ffffff"></rect></mask></defs></svg>