<svg xmlns="http://www.w3.org/2000/svg" version="1.1" xmlns:xlink="http://www.w3.org/1999/xlink" xmlns:svgjs="http://svgjs.dev/svgjs" width="1440" height="900" preserveAspectRatio="none" viewBox="0 0 1440 900"><g mask="url(&quot;#SvgjsMask1015&quot;)" fill="none"><path d="M935.1041121655305 798.7488294223142L1058.8289892668954 661.3384325178346 921.4185923624157 537.6135554164698 797.6937152610509 675.0239523209494z" fill="rgba(0, 0, 0, 0.12)" class="triangle-float1"></path><path d="M202.66605716112 91.84480131805839L192.39174460186786 238.77431624506696 339.32125952887645 249.0486288043191 349.59557208812856 102.11911387731053z" fill="rgba(0, 0, 0, 0.12)" class="triangle-float3"></path><path d="M1443.4128586934548 209.17528306116304L1323.194918913078 273.09629549730107 1387.115931349216 393.3142352776778 1507.3338711295928 329.3932228415398z" fill="rgba(0, 0, 0, 0.12)" class="triangle-float1"></path><path d="M68.303,225.19C119.733,224.353,163.031,191.848,189.78,147.913C217.832,101.838,233.109,44.912,206.7,-2.125C179.858,-49.934,123.127,-69.212,68.303,-68.451C14.948,-67.71,-36.715,-44.468,-63.592,1.629C-90.655,48.045,-87.522,105.706,-60.221,151.982C-33.369,197.495,15.466,226.05,68.303,225.19" fill="rgba(0, 0, 0, 0.12)" class="triangle-float2"></path><path d="M833.443,723.982C913.709,727.919,994.87,686.806,1029.935,614.498C1061.959,548.461,1020.341,477.894,983.587,414.368C946.92,350.992,906.579,278.358,833.443,274.876C756.3,271.203,691.666,330.124,656.312,398.787C623.885,461.765,633.84,534.525,667.723,596.732C703.429,662.285,758.886,720.325,833.443,723.982" fill="rgba(0, 0, 0, 0.12)" class="triangle-float1"></path><path d="M619.3683669654245 837.8234269644176L549.621323102051 656.1261657012243 367.9240618388576 725.8732095645978 437.6711057022311 907.5704708277912z" fill="rgba(0, 0, 0, 0.12)" class="triangle-float1"></path><path d="M1119.519107595933 367.5014171737824L1278.975803378233 544.5960190829161 1456.0704052873666 385.1393233006162 1296.6137095050667 208.04472139148245z" fill="rgba(0, 0, 0, 0.12)" class="triangle-float3"></path><path d="M1199.9160108092508 799.3371580410528L1048.9531338491133 708.6295103406031 958.2454861486635 859.5923873007407 1109.208363108801 950.3000350011904z" fill="rgba(0, 0, 0, 0.12)" class="triangle-float3"></path><path d="M487.707,824.447C565.634,824.629,616.054,752.446,655.753,685.389C696.529,616.513,739.056,535.665,700.046,465.774C660.446,394.825,568.898,381.181,487.707,384.317C412.938,387.205,338.312,415.726,301.996,481.147C266.563,544.979,286.277,620.395,321.014,684.608C358,752.979,409.973,824.266,487.707,824.447" fill="rgba(0, 0, 0, 0.12)" class="triangle-float3"></path><path d="M1178.8899782585142 357.34378185491505L1246.5197333926035 104.9460995910512 994.1220511287397 37.31634445696187 926.4922959946504 289.71402672082576z" fill="rgba(0, 0, 0, 0.12)" class="triangle-float2"></path><path d="M850.169,376.52C907.595,379.189,962.144,348.819,991.337,299.295C1020.981,249.006,1022.414,185.733,992.01,135.9C962.742,87.93,906.357,68.739,850.169,67.92C792.214,67.075,728.833,80.828,700.98,131.658C673.822,181.219,700.634,238.887,730.039,287.149C757.872,332.831,796.734,374.036,850.169,376.52" fill="rgba(0, 0, 0, 0.12)" class="triangle-float1"></path><path d="M1255.251,1057.416C1313.32,1061.011,1371.731,1034.033,1400.275,983.336C1428.371,933.435,1415.421,873.259,1386.895,823.602C1358.24,773.722,1312.704,728.001,1255.251,730.887C1200.873,733.619,1168.835,786.973,1144.681,835.769C1123.839,877.875,1117.344,925.078,1138.316,967.119C1161.878,1014.351,1202.569,1054.155,1255.251,1057.416" fill="rgba(0, 0, 0, 0.12)" class="triangle-float3"></path><path d="M1350.0016023779287 749.8182640589664L1424.4324541276453 609.8341913350052 1284.4483814036842 535.4033395852887 1210.0175296539676 675.3874123092498z" fill="rgba(0, 0, 0, 0.12)" class="triangle-float2"></path><path d="M318.364,774.15C408.21,768.763,472.741,697.856,517.414,619.718C561.663,542.32,591.851,449.836,548.232,372.081C503.899,293.052,408.951,262.622,318.364,264.887C232.05,267.045,154.26,310.466,107.577,383.098C56.293,462.888,28.178,562.858,73.183,646.351C120.053,733.303,219.761,780.062,318.364,774.15" fill="rgba(0, 0, 0, 0.12)" class="triangle-float3"></path></g><defs><mask id="SvgjsMask1015"><rect width="1440" height="900" fill="#ffffff"></rect></mask><style>
                @keyframes float1 {
                    0%{transform: translate(0, 0)}
                    50%{transform: translate(-10px, 0)}
                    100%{transform: translate(0, 0)}
                }

                .triangle-float1 {
                    animation: float1 5s infinite;
                }

                @keyframes float2 {
                    0%{transform: translate(0, 0)}
                    50%{transform: translate(-5px, -5px)}
                    100%{transform: translate(0, 0)}
                }

                .triangle-float2 {
                    animation: float2 4s infinite;
                }

                @keyframes float3 {
                    0%{transform: translate(0, 0)}
                    50%{transform: translate(0, -10px)}
                    100%{transform: translate(0, 0)}
                }

                .triangle-float3 {
                    animation: float3 6s infinite;
                }
            </style></defs></svg>